<?xml version="1.0" encoding="UTF-8"?><svg id="Ebene_1" xmlns="http://www.w3.org/2000/svg" viewBox="0 0 467.717 253.701"><defs><style>.cls-1{fill:#004f6e;}.cls-2{fill:#006890;}</style></defs><path class="cls-1" d="m369.2132,158.5837h-5.709l10.909,30.24-1.159,3.109c-.64,1.902-1.455,3.212-2.444,3.928-.989.716-2.37,1.074-4.14,1.074l-1.414-.113v4.239l1.951.367.989.085c4.144,0,7.168-2.543,9.072-7.63l12.293-35.299h-5.596l-7.121,22.92-7.631-22.92Zm-11.16-.169c-.527-.264-1.3-.396-2.317-.396-3.147,0-5.577,1.366-7.292,4.098l-.084-3.533h-5.087v30.579h5.228v-21.705c1.224-2.92,3.551-4.38,6.981-4.38.922,0,1.78.066,2.571.198v-4.861Zm-45.016,6.98c1.582-2.053,3.664-3.08,6.245-3.08,2.638,0,4.753,1.041,6.345,3.123,1.592,2.082,2.388,4.8,2.388,8.153,0,3.75-.782,6.665-2.346,8.747-1.564,2.082-3.674,3.123-6.33,3.123-2.638,0-4.744-1.027-6.317-3.081-1.573-2.053-2.359-4.776-2.359-8.167,0-3.825.791-6.764,2.374-8.818m-7.631,8.563c0,4.748,1.286,8.564,3.858,11.446,2.571,2.883,5.93,4.324,10.075,4.324,2.75,0,5.186-.659,7.305-1.978,2.12-1.319,3.749-3.16,4.89-5.525,1.139-2.364,1.709-5.035,1.709-8.012v-.368c0-4.785-1.286-8.619-3.857-11.502-2.572-2.883-5.94-4.324-10.104-4.324-2.694,0-5.092.65-7.192,1.95-2.101,1.3-3.74,3.147-4.918,5.539-1.177,2.393-1.766,5.087-1.766,8.083v.367Zm-52.845-15.374v30.579h5.228v-22.326c1.262-2.921,3.608-4.381,7.037-4.381,4.352,0,6.529,2.223,6.529,6.67v20.037h5.256v-20.292c.207-1.959.951-3.518,2.233-4.677,1.281-1.159,2.892-1.738,4.833-1.738,2.354,0,4.031.542,5.03,1.625.998,1.084,1.498,2.718,1.498,4.903v20.179h5.228v-20.489c-.113-7.103-3.523-10.655-10.23-10.655-2.224,0-4.15.452-5.78,1.357-1.63.904-2.953,2.091-3.971,3.561-1.545-3.279-4.456-4.918-8.732-4.918-3.806,0-6.83,1.319-9.072,3.957l-.141-3.392h-4.946Zm-16.869,5.921c1.281,1.46,1.997,3.519,2.148,6.175v.396h-15.317c.339-2.77,1.224-4.922,2.656-6.458,1.432-1.535,3.203-2.303,5.313-2.303,2.186,0,3.919.73,5.2,2.19m6.981,19.317l-3.194-2.487c-.961,1.243-2.082,2.242-3.363,2.995-1.281.754-2.845,1.131-4.691,1.131-2.6,0-4.744-.928-6.43-2.784-1.686-1.855-2.567-4.291-2.642-7.305h20.716v-2.177c0-4.879-1.103-8.629-3.307-11.248-2.204-2.618-5.295-3.928-9.27-3.928-2.43,0-4.687.674-6.768,2.021-2.082,1.347-3.703,3.212-4.861,5.596-1.159,2.383-1.738,5.091-1.738,8.125v.961c0,4.559,1.3,8.2,3.9,10.922,2.6,2.723,5.972,4.084,10.117,4.084,5.125,0,8.968-1.968,11.531-5.906m-78.45-25.238v30.579h5.228v-22.326c1.262-2.921,3.608-4.381,7.037-4.381,4.353,0,6.529,2.223,6.529,6.67v20.037h5.256v-20.292c.207-1.959.952-3.518,2.233-4.677,1.281-1.159,2.892-1.738,4.833-1.738,2.355,0,4.031.542,5.03,1.625.999,1.084,1.498,2.718,1.498,4.903v20.179h5.228v-20.489c-.113-7.103-3.523-10.655-10.23-10.655-2.224,0-4.15.452-5.78,1.357-1.629.904-2.953,2.091-3.97,3.561-1.545-3.279-4.456-4.918-8.733-4.918-3.806,0-6.83,1.319-9.072,3.957l-.141-3.392h-4.946Zm-10.564-.198c-.547-.244-1.291-.367-2.233-.367-3.956,0-6.83,1.809-8.619,5.426l-.057-4.861h-3.306v30.579h3.363v-20.998c.621-2.242,1.662-3.952,3.123-5.13,1.459-1.177,3.245-1.766,5.355-1.766.81,0,1.573.066,2.289.198l.085-3.081Zm-47.42,15.346c0-3.824.951-6.919,2.854-9.283,1.903-2.365,4.362-3.547,7.377-3.547,2.015,0,3.805.532,5.369,1.597,1.564,1.064,2.779,2.567,3.646,4.507.866,1.941,1.3,4.08,1.3,6.415v.65c0,3.844-.947,6.939-2.84,9.284-1.894,2.346-4.367,3.519-7.419,3.519-3.071,0-5.553-1.173-7.447-3.519-1.893-2.345-2.84-5.345-2.84-9.001v-.622Zm-3.391.368c0,4.71,1.267,8.492,3.801,11.347,2.534,2.854,5.826,4.281,9.877,4.281,2.657,0,5.021-.64,7.094-1.922,2.072-1.281,3.678-3.103,4.818-5.468,1.14-2.364,1.71-5.026,1.71-7.984v-.706c0-4.71-1.263-8.493-3.787-11.347-2.525-2.855-5.822-4.282-9.891-4.282-2.638,0-4.998.655-7.08,1.964-2.082,1.31-3.693,3.142-4.833,5.497-1.14,2.355-1.709,5.002-1.709,7.941v.679Zm-12.632,15.063v-27.809h7.291v-2.77h-7.291v-3.797c0-2.134.518-3.783,1.554-4.945,1.036-1.161,2.487-1.743,4.353-1.743,1.111,0,2.138.113,3.08.34l.254-2.803c-1.111-.317-2.308-.476-3.589-.476-2.845,0-5.063.839-6.655,2.515-1.593,1.678-2.388,4.08-2.388,7.207v3.702h-5.059v2.77h5.059v27.809h3.391Z"/><path class="cls-2" d="m185.625,76.1989c1.573,0,2.848,1.275,2.848,2.848v61.815c0,1.573-1.275,2.848-2.848,2.848h-18.672c-1.573,0-2.848-1.275-2.848-2.848v-61.815c0-1.573,1.275-2.848,2.848-2.848h18.672Zm-1.7527,42.2765h-3.83v12.297l-7.494-12.297h-3.843v18.651h3.843v-12.272l7.481,12.272h3.843v-18.651Z"/><path class="cls-2" d="m221.0018,53.8585c1.573,0,2.848,1.275,2.848,2.848v84.155c0,1.573-1.275,2.849-2.848,2.849h-18.672c-1.573,0-2.848-1.276-2.848-2.849V56.7065c0-1.573,1.275-2.848,2.848-2.848h18.672Zm-4.1865,72.546h-7.378v-4.816h8.3v-3.113h-12.143v18.651h3.843v-7.622h7.378v-3.1Z"/><path class="cls-2" d="m245.6532,121.5882h-1.896v12.451h1.857c1.503,0,2.652-.491,3.446-1.473s1.2-2.387,1.217-4.215v-.986c0-1.896-.393-3.332-1.179-4.31-.785-.978-1.934-1.467-3.445-1.467Z"/><path class="cls-2" d="m256.3786,73.0268h-18.672c-1.573,0-2.848,1.275-2.848,2.848v65.02c0,1.573,1.275,2.848,2.848,2.848h18.672c1.573,0,2.848-1.275,2.848-2.848v-65.02c0-1.573-1.275-2.848-2.848-2.848Zm-2.2074,55.2094c0,1.734-.357,3.275-1.07,4.624-.713,1.35-1.718,2.396-3.016,3.139-1.298.743-2.763,1.119-4.394,1.127h-5.777v-18.651h5.739c1.639,0,3.106.37,4.4,1.108,1.293.739,2.303,1.789,3.029,3.151.726,1.363,1.089,2.91,1.089,4.644v.858Z"/><path class="cls-2" d="m291.7553,60.1248c1.573,0,2.848,1.275,2.848,2.848v77.889c0,1.573-1.275,2.848-2.848,2.848h-18.672c-1.573,0-2.848-1.275-2.848-2.848V62.9728c0-1.573,1.275-2.848,2.848-2.848h18.672Zm-7.4143,58.3502h-3.843v18.651h3.843v-18.651Z"/></svg>